<svg width="522" height="165" viewBox="0 0 522 165" fill="none" xmlns="http://www.w3.org/2000/svg">
<rect x="6.5" y="96.5" width="153" height="63" rx="6.5" fill="white" stroke="#FEB161" stroke-width="7"/>
<circle cx="83.5" cy="128.5" r="17.5" fill="#FEB161"/>
<circle cx="43.5" cy="129.5" r="5.5" fill="#FEB161"/>
<circle cx="123.5" cy="128.5" r="5.5" fill="#FEB161"/>
<rect x="51.4975" y="6.94975" width="153" height="63" rx="6.5" transform="rotate(45 51.4975 6.94975)" fill="white" stroke="#F492A0" stroke-width="7"/>
<circle cx="83.3173" cy="84.0244" r="17.5" transform="rotate(45 83.3173 84.0244)" fill="#F492A0"/>
<circle cx="54.3259" cy="56.4472" r="5.5" transform="rotate(45 54.3259 56.4472)" fill="#F492A0"/>
<circle cx="111.602" cy="112.309" r="5.5" transform="rotate(45 111.602 112.309)" fill="#F492A0"/>
<rect x="159.5" y="6.5" width="153" height="63" rx="6.5" transform="rotate(90 159.5 6.5)" fill="white" stroke="#3E479B" stroke-width="7"/>
<circle cx="127.5" cy="83.5" r="17.5" transform="rotate(90 127.5 83.5)" fill="#3E479B"/>
<circle cx="126.5" cy="43.5" r="5.5" transform="rotate(90 126.5 43.5)" fill="#3E479B"/>
<circle cx="127.5" cy="123.5" r="5.5" transform="rotate(90 127.5 123.5)" fill="#3E479B"/>
<path d="M223.55 128.1C215.483 128.1 208.553 126.487 202.76 123.26C197.04 119.96 192.64 115.34 189.56 109.4C186.48 103.387 184.94 96.31 184.94 88.17C184.94 82.0833 185.82 76.62 187.58 71.78C189.34 66.8667 191.87 62.6867 195.17 59.24C198.47 55.72 202.503 53.0433 207.27 51.21C212.11 49.3033 217.537 48.35 223.55 48.35C227.583 48.35 231.543 48.8633 235.43 49.89C239.317 50.9167 242.727 52.3833 245.66 54.29C247.2 55.2433 248.227 56.4167 248.74 57.81C249.253 59.13 249.363 60.45 249.07 61.77C248.777 63.0167 248.153 64.08 247.2 64.96C246.32 65.84 245.183 66.3533 243.79 66.5C242.47 66.5733 241.003 66.0967 239.39 65.07C237.117 63.6033 234.66 62.54 232.02 61.88C229.38 61.22 226.703 60.89 223.99 60.89C218.783 60.89 214.383 61.9533 210.79 64.08C207.197 66.2067 204.483 69.2867 202.65 73.32C200.817 77.3533 199.9 82.3033 199.9 88.17C199.9 93.9633 200.817 98.9133 202.65 103.02C204.483 107.127 207.197 110.243 210.79 112.37C214.383 114.497 218.783 115.56 223.99 115.56C226.777 115.56 229.527 115.23 232.24 114.57C234.953 113.837 237.52 112.737 239.94 111.27C241.553 110.317 242.983 109.913 244.23 110.06C245.55 110.133 246.65 110.573 247.53 111.38C248.41 112.187 248.997 113.213 249.29 114.46C249.583 115.633 249.51 116.88 249.07 118.2C248.63 119.447 247.75 120.547 246.43 121.5C243.497 123.627 239.977 125.277 235.87 126.45C231.837 127.55 227.73 128.1 223.55 128.1ZM276.692 128.1C272.805 128.1 269.322 127.367 266.242 125.9C263.235 124.36 260.852 122.307 259.092 119.74C257.405 117.173 256.562 114.277 256.562 111.05C256.562 107.09 257.589 103.973 259.642 101.7C261.695 99.3533 265.032 97.6667 269.652 96.64C274.272 95.6133 280.469 95.1 288.242 95.1H293.742V103.02H288.352C283.805 103.02 280.175 103.24 277.462 103.68C274.749 104.12 272.805 104.89 271.632 105.99C270.532 107.017 269.982 108.483 269.982 110.39C269.982 112.81 270.825 114.79 272.512 116.33C274.199 117.87 276.545 118.64 279.552 118.64C281.972 118.64 284.099 118.09 285.932 116.99C287.839 115.817 289.342 114.24 290.442 112.26C291.542 110.28 292.092 108.007 292.092 105.44V92.79C292.092 89.1233 291.285 86.4833 289.672 84.87C288.059 83.2567 285.345 82.45 281.532 82.45C279.405 82.45 277.095 82.7067 274.602 83.22C272.182 83.7333 269.615 84.6133 266.902 85.86C265.509 86.52 264.262 86.7033 263.162 86.41C262.135 86.1167 261.329 85.53 260.742 84.65C260.155 83.6967 259.862 82.67 259.862 81.57C259.862 80.47 260.155 79.4067 260.742 78.38C261.329 77.28 262.319 76.4733 263.712 75.96C267.085 74.5667 270.312 73.5767 273.392 72.99C276.545 72.4033 279.405 72.11 281.972 72.11C287.252 72.11 291.579 72.9167 294.952 74.53C298.399 76.1433 300.965 78.6 302.652 81.9C304.339 85.1267 305.182 89.3067 305.182 94.44V120.84C305.182 123.113 304.632 124.873 303.532 126.12C302.432 127.293 300.855 127.88 298.802 127.88C296.749 127.88 295.135 127.293 293.962 126.12C292.862 124.873 292.312 123.113 292.312 120.84V115.56H293.192C292.679 118.127 291.652 120.363 290.112 122.27C288.645 124.103 286.775 125.533 284.502 126.56C282.229 127.587 279.625 128.1 276.692 128.1ZM338.828 128.1C335.675 128.1 332.338 127.77 328.818 127.11C325.298 126.45 322.145 125.313 319.358 123.7C318.185 122.967 317.342 122.123 316.828 121.17C316.388 120.143 316.205 119.153 316.278 118.2C316.425 117.173 316.792 116.293 317.378 115.56C318.038 114.827 318.845 114.35 319.798 114.13C320.825 113.91 321.925 114.093 323.098 114.68C326.032 116.073 328.782 117.063 331.348 117.65C333.915 118.163 336.445 118.42 338.938 118.42C342.458 118.42 345.062 117.833 346.748 116.66C348.508 115.413 349.388 113.8 349.388 111.82C349.388 110.133 348.802 108.85 347.628 107.97C346.528 107.017 344.842 106.32 342.568 105.88L331.568 103.79C327.022 102.91 323.538 101.26 321.118 98.84C318.772 96.3467 317.598 93.1567 317.598 89.27C317.598 85.75 318.552 82.7067 320.458 80.14C322.438 77.5733 325.152 75.5933 328.598 74.2C332.045 72.8067 336.005 72.11 340.478 72.11C343.705 72.11 346.712 72.4767 349.498 73.21C352.358 73.87 355.108 74.9333 357.748 76.4C358.848 76.9867 359.582 77.7567 359.948 78.71C360.388 79.6633 360.498 80.6533 360.278 81.68C360.058 82.6333 359.618 83.5133 358.958 84.32C358.298 85.0533 357.455 85.53 356.428 85.75C355.475 85.8967 354.375 85.6767 353.128 85.09C350.855 83.9167 348.655 83.0733 346.528 82.56C344.475 82.0467 342.495 81.79 340.588 81.79C336.995 81.79 334.318 82.4133 332.558 83.66C330.872 84.9067 330.028 86.5567 330.028 88.61C330.028 90.15 330.542 91.4333 331.568 92.46C332.595 93.4867 334.172 94.1833 336.298 94.55L347.298 96.64C352.065 97.52 355.658 99.1333 358.078 101.48C360.572 103.827 361.818 106.98 361.818 110.94C361.818 116.293 359.728 120.51 355.548 123.59C351.368 126.597 345.795 128.1 338.828 128.1ZM379.669 127.88C377.469 127.88 375.783 127.293 374.609 126.12C373.436 124.873 372.849 123.113 372.849 120.84V55.5C372.849 53.2267 373.436 51.5033 374.609 50.33C375.783 49.1567 377.469 48.57 379.669 48.57C381.869 48.57 383.556 49.1567 384.729 50.33C385.976 51.5033 386.599 53.2267 386.599 55.5V83.99H385.059C386.673 80.1033 389.166 77.17 392.539 75.19C395.986 73.1367 399.873 72.11 404.199 72.11C408.526 72.11 412.083 72.9167 414.869 74.53C417.656 76.1433 419.746 78.6 421.139 81.9C422.533 85.1267 423.229 89.2333 423.229 94.22V120.84C423.229 123.113 422.643 124.873 421.469 126.12C420.296 127.293 418.609 127.88 416.409 127.88C414.209 127.88 412.486 127.293 411.239 126.12C410.066 124.873 409.479 123.113 409.479 120.84V94.88C409.479 90.7 408.673 87.6567 407.059 85.75C405.519 83.8433 403.099 82.89 399.799 82.89C395.766 82.89 392.539 84.1733 390.119 86.74C387.773 89.2333 386.599 92.57 386.599 96.75V120.84C386.599 125.533 384.289 127.88 379.669 127.88ZM455.565 128.1C449.478 128.1 444.895 126.377 441.815 122.93C438.735 119.41 437.195 114.277 437.195 107.53V55.5C437.195 53.2267 437.782 51.5033 438.955 50.33C440.128 49.1567 441.815 48.57 444.015 48.57C446.215 48.57 447.902 49.1567 449.075 50.33C450.322 51.5033 450.945 53.2267 450.945 55.5V106.87C450.945 110.243 451.642 112.737 453.035 114.35C454.502 115.963 456.555 116.77 459.195 116.77C459.782 116.77 460.332 116.77 460.845 116.77C461.358 116.697 461.872 116.623 462.385 116.55C463.412 116.403 464.108 116.697 464.475 117.43C464.842 118.09 465.025 119.483 465.025 121.61C465.025 123.443 464.658 124.873 463.925 125.9C463.192 126.927 461.982 127.55 460.295 127.77C459.562 127.843 458.792 127.917 457.985 127.99C457.178 128.063 456.372 128.1 455.565 128.1ZM484.565 147.68C482.952 147.68 481.632 147.24 480.605 146.36C479.579 145.553 478.955 144.453 478.735 143.06C478.589 141.667 478.845 140.2 479.505 138.66L486.985 122.05V127.77L466.965 81.46C466.305 79.8467 466.085 78.3433 466.305 76.95C466.525 75.5567 467.185 74.4567 468.285 73.65C469.459 72.77 471.035 72.33 473.015 72.33C474.702 72.33 476.059 72.7333 477.085 73.54C478.112 74.2733 479.029 75.7033 479.835 77.83L494.685 114.9H491.385L506.565 77.72C507.372 75.6667 508.325 74.2733 509.425 73.54C510.525 72.7333 511.992 72.33 513.825 72.33C515.439 72.33 516.722 72.77 517.675 73.65C518.629 74.4567 519.215 75.5567 519.435 76.95C519.655 78.27 519.399 79.7367 518.665 81.35L491.935 142.4C490.982 144.453 489.955 145.847 488.855 146.58C487.755 147.313 486.325 147.68 484.565 147.68Z" fill="#3E479B"/>
</svg>
